<?xml version="1.0" standalone="no"?>
<!DOCTYPE svg PUBLIC "-//W3C//DTD SVG 20010904//EN"
 "http://www.w3.org/TR/2001/REC-SVG-20010904/DTD/svg10.dtd">
<svg version="1.0" xmlns="http://www.w3.org/2000/svg"
 width="200.000000pt" height="200.000000pt" viewBox="0 0 200.000000 200.000000"
 preserveAspectRatio="xMidYMid meet">
<metadata>
Created by potrace 1.11, written by Peter Selinger 2001-2013
</metadata>
<g transform="translate(0.000000,200.000000) scale(0.100000,-0.100000)"
fill="#000000" stroke="none">
<path d="M0 1000 l0 -1000 1000 0 1000 0 0 1000 0 1000 -1000 0 -1000 0 0
-1000z m486 125 c12 -8 24 -11 28 -8 3 3 6 -8 6 -25 0 -18 -4 -32 -10 -32 -5
0 -7 6 -4 13 7 20 -31 49 -68 50 l-33 2 -3 -92 -3 -93 28 0 c43 0 76 27 69 56
-4 16 -2 24 6 24 9 0 12 -15 9 -52 -3 -29 -6 -45 -8 -35 -5 21 -2 21 -48 1
-88 -36 -152 51 -111 150 8 19 22 39 33 45 26 15 85 13 109 -4z m338 -10 c-4
-8 -10 -39 -15 -68 l-8 -52 4 57 c3 53 10 78 20 78 3 0 2 -7 -1 -15z m389 -46
c-4 -4 -7 5 -7 22 2 42 6 48 11 15 3 -16 1 -32 -4 -37z m-81 18 c-3 -28 1 -36
42 -64 60 -43 63 -83 8 -112 -18 -10 -29 -9 -54 4 -25 12 -33 13 -40 3 -6 -8
-7 -4 -3 12 11 38 22 44 29 16 5 -22 12 -26 41 -26 24 0 37 6 45 20 16 31 5
53 -45 88 -45 32 -56 57 -33 80 7 7 12 12 13 12 1 0 -1 -15 -3 -33z m-175 6
c-15 -4 -18 -12 -15 -39 2 -20 0 -34 -7 -34 -6 0 -11 17 -10 40 0 36 2 40 25
39 19 -1 20 -3 7 -6z m-239 -69 c20 2 29 2 20 -1 -24 -6 -36 -24 -48 -69 l-9
-39 5 47 c3 27 1 49 -6 53 -5 3 -10 12 -9 18 0 9 2 9 6 0 3 -8 18 -12 41 -9z
m725 -8 c3 -7 -5 -11 -22 -11 -26 0 -44 13 -36 26 7 10 53 -2 58 -15z m-809 8
c9 -3 16 -14 16 -23 -1 -14 -2 -14 -11 2 -19 32 -39 20 -39 -24 0 -36 2 -41
20 -36 11 3 18 2 15 -3 -3 -4 -15 -10 -27 -12 -22 -4 -23 -1 -23 49 0 55 8 63
49 47z m637 -8 c-7 -8 -11 -27 -9 -43 2 -23 8 -28 30 -28 14 1 24 -3 22 -7
-15 -23 -74 6 -74 36 0 24 18 56 32 56 7 0 7 -5 -1 -14z m63 -2 c9 -22 -3 -32
-14 -14 -12 19 -12 30 -1 30 5 0 12 -7 15 -16z m167 3 c-6 -8 -9 -17 -6 -21 3
-3 0 -2 -6 3 -12 10 -4 31 13 31 7 0 7 -4 -1 -13z m171 -11 c9 -12 10 -26 3
-26 -2 0 -16 12 -30 26 -25 25 -25 25 -3 18 13 -3 26 -12 30 -18z m-1102 -32
c0 -40 -2 -45 -15 -34 -18 15 -20 51 -3 68 17 17 18 16 18 -34z m287 24 c-3
-8 -6 -5 -6 6 -1 11 2 17 5 13 3 -3 4 -12 1 -19z m745 10 c-16 -16 -15 -53 3
-68 15 -12 55 -5 55 11 0 5 5 9 10 9 18 0 10 -16 -14 -29 -31 -17 -65 -6 -76
25 -10 25 5 64 24 64 6 0 5 -5 -2 -12z m-63 -64 c-13 -16 -45 -19 -53 -5 -3 4
6 6 21 3 23 -4 25 -2 20 17 -4 18 -3 20 9 10 11 -9 12 -15 3 -25z m-139 -4 c0
-5 -5 -10 -11 -10 -5 0 -7 5 -4 10 3 6 8 10 11 10 2 0 4 -4 4 -10z"/>
<path d="M368 1093 c-22 -39 -23 -102 -4 -129 22 -30 27 -13 24 77 l-3 84 -17
-32z"/>
</g>
</svg>
